<?xml version="1.0" encoding="UTF-8"?>
<svg id="Layer_1" xmlns="http://www.w3.org/2000/svg" viewBox="0 0 377 489">
  <path d="M.05,488.95C.05,326.73.05,164.52,0,2.3,0,.42.42,0,2.29,0c124.14.05,248.28.05,372.41,0,1.87,0,2.29.42,2.29,2.3-.05,161.47-.05,322.94,0,484.41,0,1.87-.42,2.3-2.29,2.3-124.89-.05-249.77-.05-374.66-.05Z" fill="#b7a59e"/>
  <path d="M18.64,303.47c0-55.31.02-110.62-.06-165.93,0-2.38.53-3.03,2.97-3.03,33.77.09,67.55,0,101.32.09,12.24.03,24.19,1.87,35.44,7.01,14.83,6.78,25.16,17.94,30.4,33.32,7.08,20.8,7.09,41.83-1.11,62.3-8.16,20.39-24.15,31.54-45.33,35.72-6.55,1.29-13.17,1.76-19.83,1.75-21.38-.02-42.76.03-64.13-.07-2.29-.01-2.72.69-2.71,2.81.07,26.82.06,53.64.04,80.47-.03,37.48-.12,74.95-.11,112.43,0,2.02-.59,2.48-2.51,2.46-10.73-.09-21.46-.09-32.19,0-1.92.02-2.33-.57-2.33-2.41.05-36.23.04-72.47.04-108.7v-58.22s.07,0,.1,0Z"/>
  <path d="M82.32,385.22c0-28.57.02-57.15-.05-85.72,0-2.21.46-2.98,2.86-2.97,34.02.08,68.05.08,102.07,0,2.31,0,2.91.63,2.91,2.92-.06,57.4-.06,114.8,0,172.19,0,2.19-.45,2.99-2.86,2.98-34.02-.08-68.05-.08-102.07,0-2.32,0-2.91-.65-2.9-2.93.07-28.82.05-57.65.05-86.47Z" fill="#d5562f"/>
  <path d="M103.04,13.11c27.95,0,55.9.03,83.86-.05,2.41,0,3.03.66,3.03,3.05-.08,29.41-.09,58.81,0,88.22,0,2.59-.73,3.15-3.21,3.14-55.9-.07-111.81-.08-167.71,0-2.59,0-3.16-.72-3.15-3.2.09-29.41.09-58.81,0-88.22,0-2.46.74-3,3.08-2.99,28.04.08,56.07.05,84.11.05Z" fill="#e18c8f"/>
  <path d="M361.87,93.48c0,25.65-.04,51.31.06,76.96,0,2.55-.67,3.2-3.21,3.19-26.2-.1-52.4-.09-78.6,0-2.32,0-3.1-.47-3.1-2.96.07-51.56.07-103.12,0-154.68,0-2.28.56-2.91,2.88-2.9,26.37.08,52.74.08,79.1,0,2.32,0,2.92.65,2.91,2.93-.08,25.82-.05,51.64-.05,77.46Z" fill="#dc754d"/>
  <path d="M216.31,121.59c0-34.82.03-69.63-.06-104.45,0-2.41.61-3.05,3.02-3.02,9.56.14,19.13.14,28.7,0,2.36-.04,2.87.67,2.86,2.93-.06,59.39-.05,118.78-.04,178.17,0,3.95-.35,3.46,3.47,3.46,34.44,0,68.87.04,103.31-.07,2.64,0,3.09.76,3.05,3.17-.15,8.33-.1,16.66-.02,24.99.01,1.62-.23,2.3-2.11,2.29-46.66-.06-93.33-.06-139.99.01-2.42,0-2.19-1.23-2.19-2.78.01-34.9,0-69.8,0-104.7Z"/>
  <path d="M341.66,452.07c.68-1.18.43-2.1.43-2.98.02-11.49.06-22.99-.03-34.48-.02-1.9.5-2.44,2.37-2.35,3.15.15,6.32.1,9.48.01,1.29-.04,1.69.32,1.68,1.65-.04,18.57-.05,37.15,0,55.72,0,1.49-.51,1.94-1.86,1.73-.08-.01-.17,0-.25,0-3.82-.04-8.16,1.04-11.32-.43-3.15-1.47-5.14-5.47-7.59-8.4-8.11-9.71-16.2-19.43-24.29-29.14-.36-.43-.77-.83-1.19-1.28-.86.86-.46,1.82-.47,2.66-.03,11.41-.06,22.82.02,34.23.01,1.83-.39,2.51-2.33,2.4-2.9-.17-5.83-.17-8.73,0-1.87.11-2.4-.45-2.37-2.34.1-8.24.04-16.49.04-24.74,0-9.91.05-19.82-.04-29.73-.02-1.87.46-2.46,2.35-2.36,3.65.19,7.83-.95,10.81.49,3.08,1.48,5.03,5.36,7.42,8.23,8.57,10.28,17.12,20.59,25.86,31.1Z"/>
  <path d="M311.26,271.89c3.81-3.24,7.59-6.44,11.35-9.66,5.06-4.32,10.14-8.62,15.15-13,1.15-1,2.29-1.41,3.81-1.39,5.05.08,10.1.03,15.89.03-2.26,1.9-3.98,3.37-5.72,4.82-7.16,5.95-14.3,11.94-21.52,17.82-1.64,1.34-2.07,2.15-.46,4.02,8.54,9.88,16.91,19.9,25.32,29.89.57.68,1.34,1.23,1.64,2.5-5.2,0-10.31,0-15.41,0-1.13,0-1.51-.94-2.06-1.61-6.37-7.69-12.78-15.34-19.01-23.14-1.34-1.68-1.99-1.21-3.5-.32-4.92,2.91-6.78,6.91-5.98,12.6.48,3.43.04,6.98.11,10.48.03,1.42-.22,2.11-1.88,2.03-3.07-.14-6.15-.09-9.23-.02-1.33.03-1.91-.26-1.91-1.77.05-18.57.04-37.13.01-55.7,0-1.13.23-1.66,1.5-1.64,3.32.07,6.65.09,9.98,0,1.53-.04,1.52.79,1.51,1.88-.02,6.49-.02,12.99,0,19.48,0,.8-.25,1.65.42,2.67Z"/>
  <path d="M220.2,441.78c0-9.08.04-18.16-.04-27.24-.01-1.68.36-2.29,2.17-2.28,13.81.07,27.62.07,41.42,0,1.65,0,2.16.5,2.06,2.12-.13,2.16-.15,4.34,0,6.49.13,1.76-.62,2.05-2.16,2.04-9.57-.06-19.13.03-28.7-.08-1.88-.02-2.42.46-2.3,2.33.17,2.82.15,5.67,0,8.49-.09,1.7.51,2.05,2.09,2.04,8.73-.07,17.47.03,26.2-.08,2.04-.03,2.84.46,2.64,2.6-.19,1.98-.14,4,0,5.99.11,1.66-.46,2.13-2.1,2.12-8.73-.07-17.47.03-26.2-.08-1.97-.02-2.79.3-2.64,2.52.22,3.32.16,6.66.02,9.99-.07,1.69.48,2.08,2.09,2.07,9.65-.07,19.3.03,28.95-.09,2.02-.02,2.56.58,2.41,2.5-.16,2.15-.11,4.33-.01,6.49.06,1.34-.42,1.68-1.71,1.67-14.14-.04-28.28-.05-42.42.01-1.76,0-1.8-.84-1.8-2.15.03-9.16.02-18.32.02-27.49Z"/>
  <path d="M278.35,388.34c-5.84,1.77-8.41-1.32-9.96-6.42-.86-2.84-2.38-5.48-3.5-8.25-.48-1.18-1.13-1.59-2.42-1.58-6.9.06-13.8.08-20.7,0-1.5-.02-2.24.5-2.81,1.82-1.85,4.27-3.87,8.47-5.66,12.76-.59,1.43-1.41,1.75-2.8,1.71-3.16-.09-6.32-.12-9.48,0-1.98.08-2.47-.21-1.51-2.24,5.64-11.95,11.16-23.95,16.72-35.94,2.93-6.33,5.91-12.65,8.75-19.02.68-1.53,1.53-2.08,3.19-1.99,2.82.15,5.65.11,8.48.01,1.36-.05,2.09.4,2.67,1.65,8.57,18.56,17.17,37.1,25.83,55.62.82,1.74.24,1.96-1.31,1.89-1.83-.08-3.66-.02-5.49-.02Z"/>
  <path d="M218.1,306.94c2.07-4.64,4.01-9.02,5.97-13.39,6.48-14.48,13.01-28.94,19.41-43.46.77-1.74,1.67-2.35,3.52-2.25,2.73.16,5.48.08,8.23.02,1.1-.02,1.81.23,2.32,1.35,8.47,18.96,16.98,37.9,25.48,56.85.06.14.04.32.1.87-4.46,0-8.88,0-13.3,0-1.15,0-1.19-1.05-1.49-1.74-1.82-4.19-3.64-8.38-5.33-12.62-.55-1.39-1.29-1.83-2.77-1.81-6.48.08-12.97.09-19.45,0-1.61-.02-2.35.56-2.93,1.99-1.69,4.15-3.57,8.23-5.28,12.37-.54,1.31-1.19,1.94-2.73,1.88-3.8-.13-7.6-.04-11.74-.04Z"/>
  <path d="M328.57,329.22c9.4,0,18.8.04,28.19-.04,1.74-.02,2.33.45,2.2,2.21-.15,2.07-.14,4.17,0,6.24.12,1.71-.37,2.29-2.17,2.25-6.32-.11-12.64.02-18.96-.08-1.74-.03-2.23.47-2.22,2.22.07,14.57,0,29.15.08,43.72.01,2.01-.43,2.75-2.56,2.64-3.57-.19-7.15-.16-10.72,0-1.86.08-2.37-.45-2.36-2.35.08-14.49,0-28.98.09-43.47.01-2.08-.31-2.88-2.65-2.78-5.81.26-11.63.17-17.45.27-1.09.02-1.81-.19-1.7-1.47.01-.17,0-.33,0-.5.19-2.88-1.2-6.57.57-8.41,1.55-1.61,5.22-.41,7.95-.43,7.24-.05,14.47-.02,21.71-.02Z"/>
  <path d="M55.64,204.5c0-11.83.04-23.65-.04-35.48-.01-1.95.49-2.5,2.48-2.5,18.3.08,36.59-.04,54.89.09,6.9.05,13.74.86,20.4,2.94,12.66,3.95,20.1,12.51,22.41,25.48,1.4,7.87,1.26,15.78-1,23.5-3.78,12.94-12.93,19.84-25.72,22.54-5.64,1.19-11.34,1.65-17.09,1.65-17.88,0-35.76-.05-53.64.05-2.27.01-2.75-.68-2.73-2.81.1-11.82.05-23.65.05-35.48Z" fill="#b7a59e"/>
  <path d="M259.49,361.42h-14.95c2.47-5.81,4.87-11.45,7.51-17.64,2.57,6.09,4.96,11.76,7.45,17.64Z" fill="#b7a59e"/>
  <path d="M250.57,262.58c2.42,5.98,4.54,11.25,6.7,16.51.33.8.06,1.06-.71,1.06-4.31,0-8.61,0-13.27,0,2.42-5.84,4.71-11.37,7.28-17.57Z" fill="#b7a59e"/>
</svg>